<svg id="Capa_1" enable-background="new 0 0 512 512" height="512" viewBox="0 0 512 512" width="512" xmlns="http://www.w3.org/2000/svg"><g><g><circle cx="256" cy="267" fill="#e80054" r="245"/></g><g><circle cx="256" cy="222" fill="#ff4155" r="180"/></g><g><g><g><path d="m394.449 391.559c-8.656 0-15.673-7.017-15.673-15.673 0-67.698-55.077-122.775-122.776-122.775s-122.776 55.077-122.776 122.775c0 8.656-7.017 15.673-15.673 15.673s-15.673-7.017-15.673-15.673c0-84.983 69.139-154.122 154.122-154.122s154.122 69.139 154.122 154.122c0 8.656-7.017 15.673-15.673 15.673z" fill="#bec8f7"/></g></g><g><path d="m216.816 269.061h78.367v31.347h-78.367z" fill="#bec8f7" transform="matrix(0 1 -1 0 540.735 28.735)"/></g><g><path d="m318.694 475.429h-125.388c-11.542 0-20.898-9.356-20.898-20.898v-125.388c0-11.542 9.356-20.898 20.898-20.898h125.388c11.542 0 20.898 9.356 20.898 20.898v125.388c0 11.541-9.356 20.898-20.898 20.898z" fill="#e9efff"/></g><g><path d="m217.339 454.531v-125.388c0-11.542 9.356-20.898 20.898-20.898h-44.931c-11.542 0-20.898 9.356-20.898 20.898v125.388c0 11.542 9.356 20.898 20.898 20.898h44.931c-11.542 0-20.898-9.357-20.898-20.898z" fill="#d3dcfb"/></g><g><circle cx="256" cy="391.837" fill="#fff" r="67.918"/></g><g><circle cx="256" cy="391.837" fill="#8ae1ff" r="52.245"/></g><g><path d="m256 339.592c-28.808 0-52.245 23.437-52.245 52.245s23.437 52.245 52.245 52.245c-5.762 0-10.449-4.687-10.449-10.449s4.687-10.449 10.449-10.449v-62.694c-5.762 0-10.449-4.687-10.449-10.449s4.687-10.449 10.449-10.449z" fill="#42c3fc"/></g><g><circle cx="256" cy="391.837" fill="#1aa9e8" r="31.347"/></g><g><circle cx="271.673" cy="376.163" fill="#b8f0ff" r="15.673"/></g><g><path d="m318.694 224.653h-125.388v20.898c0 11.542 9.356 20.898 20.898 20.898h83.592c11.542 0 20.898-9.356 20.898-20.898z" fill="#3b3868"/></g><g><path d="m250.776 245.551v-20.898h-57.469v20.898c0 11.542 9.356 20.898 20.898 20.898h57.469c-11.542 0-20.898-9.356-20.898-20.898z" fill="#2d2d59"/></g><g><path d="m370.699 172.408c-24.855 0-48.365-12.335-61.611-33.366-11.098-17.62-30.725-29.328-53.087-29.328s-41.989 11.708-53.087 29.328c-13.246 21.031-36.756 33.366-61.611 33.366h-47.262v62.694h323.918v-62.694z" fill="#d3dcfb"/></g><g><g><path d="m193.306 172.408c0-12.976 3.943-25.031 10.694-35.033-.371.55-.734 1.105-1.088 1.667-13.246 21.031-36.756 33.366-61.611 33.366h-47.26v62.694h161.959c-34.625 0-62.694-28.069-62.694-62.694z" fill="#bec8f7"/></g></g><g><path d="m78.367 167.184v-151.511c0-8.656 7.018-15.673 15.674-15.673 8.656 0 15.673 7.017 15.673 15.673v151.51h-31.347z" fill="#d3dcfb"/></g><g><path d="m135.837 52.245h-83.592v20.898c0 11.542 9.356 20.898 20.898 20.898h41.796c11.542 0 20.898-9.356 20.898-20.898z" fill="#3b3868"/></g><g><path d="m87.771 73.143v-20.898h-35.526v20.898c0 11.542 9.356 20.898 20.898 20.898h35.527c-11.542 0-20.899-9.357-20.899-20.898z" fill="#2d2d59"/></g><g><path d="m94.041 276.898c23.083 0 41.796-18.713 41.796-41.796v-52.245c0-23.083-18.713-41.796-41.796-41.796-23.083 0-41.796 18.713-41.796 41.796v52.245c0 23.083 18.713 41.796 41.796 41.796z" fill="#fff"/></g><g><path d="m94.041 235.102v-52.245c0-15.468 8.409-28.963 20.898-36.19-6.149-3.559-13.282-5.605-20.898-5.605-23.083 0-41.796 18.713-41.796 41.796v52.245c0 23.083 18.713 41.796 41.796 41.796 7.616 0 14.749-2.047 20.898-5.605-12.489-7.229-20.898-20.724-20.898-36.192z" fill="#e9efff"/></g><g><path d="m172.408 62.694h-156.735c-8.656 0-15.673-7.017-15.673-15.674 0-8.656 7.017-15.673 15.673-15.673h156.735c8.656 0 15.673 7.017 15.673 15.673.001 8.657-7.017 15.674-15.673 15.674z" fill="#47477f"/></g><g><path d="m36.571 47.02c0-8.656 7.017-15.673 15.673-15.673h-36.571c-8.656 0-15.673 7.017-15.673 15.673s7.017 15.673 15.673 15.673h36.571c-8.655.001-15.673-7.016-15.673-15.673z" fill="#3b3868"/></g><g><path d="m112.327 125.388h-36.572c-4.328 0-7.837-3.509-7.837-7.837 0-4.328 3.509-7.837 7.837-7.837h36.571c4.328 0 7.837 3.509 7.837 7.837 0 4.328-3.508 7.837-7.836 7.837z" fill="#47477f"/></g><g><path d="m402.286 167.184v-151.511c0-8.656 7.017-15.673 15.673-15.673 8.656 0 15.673 7.017 15.673 15.673v151.51h-31.346z" fill="#d3dcfb"/></g><g><path d="m459.755 52.245h-83.592v20.898c0 11.542 9.356 20.898 20.898 20.898h41.796c11.542 0 20.898-9.356 20.898-20.898z" fill="#3b3868"/></g><g><path d="m411.69 73.143v-20.898h-35.527v20.898c0 11.542 9.356 20.898 20.898 20.898h35.527c-11.542 0-20.898-9.357-20.898-20.898z" fill="#2d2d59"/></g><g><path d="m417.959 276.898c23.083 0 41.796-18.713 41.796-41.796v-52.245c0-23.083-18.713-41.796-41.796-41.796-23.083 0-41.796 18.713-41.796 41.796v52.245c0 23.083 18.713 41.796 41.796 41.796z" fill="#fff"/></g><g><path d="m417.959 235.102v-52.245c0-15.468 8.409-28.963 20.898-36.19-6.149-3.559-13.282-5.605-20.898-5.605-23.083 0-41.796 18.713-41.796 41.796v52.245c0 23.083 18.713 41.796 41.796 41.796 7.616 0 14.749-2.047 20.898-5.605-12.489-7.229-20.898-20.724-20.898-36.192z" fill="#e9efff"/></g><g><path d="m496.327 62.694h-156.735c-8.656 0-15.673-7.017-15.673-15.673 0-8.656 7.017-15.673 15.673-15.673h156.735c8.656 0 15.673 7.017 15.673 15.673 0 8.656-7.017 15.673-15.673 15.673z" fill="#47477f"/></g><g><path d="m360.49 47.02c0-8.656 7.017-15.673 15.673-15.673h-36.571c-8.656 0-15.673 7.017-15.673 15.673s7.017 15.673 15.673 15.673h36.571c-8.656.001-15.673-7.016-15.673-15.673z" fill="#3b3868"/></g><g><path d="m436.245 125.388h-36.571c-4.328 0-7.837-3.509-7.837-7.837 0-4.328 3.509-7.837 7.837-7.837h36.571c4.328 0 7.837 3.509 7.837 7.837 0 4.328-3.509 7.837-7.837 7.837z" fill="#47477f"/></g><g><path d="m271.673 188.082h-31.347c-8.656 0-15.673-7.017-15.673-15.673 0-8.656 7.017-15.673 15.673-15.673h31.347c8.656 0 15.673 7.017 15.673 15.673.001 8.655-7.016 15.673-15.673 15.673z" fill="#e9efff"/></g></g></g></svg>